HIERARCHY
ROOT Hips
{
	OFFSET 0.00 0.00 0.00
	CHANNELS 6 Xposition Yposition Zposition Xrotation Yrotation Zrotation
	JOINT Spine
	{
		OFFSET 0.00000 1.70439 2.55658
		CHANNELS 3 Xrotation Yrotation Zrotation
		JOINT Spine1
		{
			OFFSET 0.00000 0.59193 3.35699
			CHANNELS 3 Xrotation Yrotation Zrotation
			JOINT Spine2
			{
				OFFSET 0.00000 0.29710 3.39581
				CHANNELS 3 Xrotation Yrotation Zrotation
				JOINT Spine3
				{
					OFFSET 0.00000 0.00000 3.40878
					CHANNELS 3 Xrotation Yrotation Zrotation
					JOINT Neck
					{
						OFFSET 0.00000 -1.27828 8.94804
						CHANNELS 3 Xrotation Yrotation Zrotation
						JOINT Head
						{
							OFFSET 0.00000 -0.81390 4.61586
							CHANNELS 3 Xrotation Yrotation Zrotation
							End Site
							{
								OFFSET 0.00000 0.00001 5.51796
							}
						}
					}
					JOINT RightShoulder
					{
						OFFSET -1.18875 -1.98124 6.41925
						CHANNELS 3 Xrotation Yrotation Zrotation
						JOINT RightArm
						{
							OFFSET -5.90412 0.00000 0.00000
							CHANNELS 3 Xrotation Yrotation Zrotation
							JOINT RightForeArm
							{
								OFFSET -11.94674 0.00000 0.00000
								CHANNELS 3 Xrotation Yrotation Zrotation
								JOINT RightHand
								{
									OFFSET -10.17720 0.00000 0.00000
									CHANNELS 3 Xrotation Yrotation Zrotation
									JOINT RightHandEnd
									{
										OFFSET -2.84518 0.00000 0.00000
										CHANNELS 3 Xrotation Yrotation Zrotation
										End Site
										{
											OFFSET -2.84518 0.00000 0.00000
										}
									}
									JOINT RightHandThumb1
									{
										OFFSET -1.13807 -1.89679 -0.75871
										CHANNELS 3 Yrotation Xrotation Zrotation
										End Site
										{
											OFFSET -2.74823 -0.73639 0.00000
										}
									}
								}
							}
						}
					}
					JOINT LeftShoulder
					{
						OFFSET 1.18875 -1.98124 6.41925
						CHANNELS 3 Xrotation Yrotation Zrotation
						JOINT LeftArm
						{
							OFFSET 5.90412 0.00000 0.00000
							CHANNELS 3 Xrotation Yrotation Zrotation
							JOINT LeftForeArm
							{
								OFFSET 11.94674 0.00000 0.00000
								CHANNELS 3 Xrotation Yrotation Zrotation
								JOINT LeftHand
								{
									OFFSET 10.17720 0.00000 0.00000
									CHANNELS 3 Xrotation Yrotation Zrotation
									JOINT LeftHandEnd
									{
										OFFSET 2.84518 0.00000 0.00000
										CHANNELS 3 Xrotation Yrotation Zrotation
										End Site
										{
											OFFSET 2.84518 0.00000 0.00000
										}
									}
									JOINT LeftHandThumb1
									{
										OFFSET 1.13807 -1.89679 -0.75871
										CHANNELS 3 Yrotation Xrotation Zrotation
										End Site
										{
											OFFSET 2.74823 -0.73639 0.00000
										}
									}
								}
							}
						}
					}
				}
			}
		}
	}
	JOINT RightUpLeg
	{
		OFFSET -3.52662 0.00000 -1.03025
		CHANNELS 3 Xrotation Yrotation Zrotation
		JOINT RightLeg
		{
			OFFSET 0.00001 0.00000 -17.80159
			CHANNELS 3 Xrotation Yrotation Zrotation
			JOINT RightFoot
			{
				OFFSET 0.00001 0.00000 -16.85992
				CHANNELS 3 Xrotation Yrotation Zrotation
				JOINT RightToeBase
				{
					OFFSET 0.00000 -5.42953 -1.97619
					CHANNELS 3 Xrotation Yrotation Zrotation
					End Site
					{
						OFFSET 0.00000 -2.85300 -0.00000
					}
				}
			}
		}
	}
	JOINT LeftUpLeg
	{
		OFFSET 3.52662 0.00000 -1.03025
		CHANNELS 3 Xrotation Yrotation Zrotation
		JOINT LeftLeg
		{
			OFFSET 0.00001 0.00000 -17.80159
			CHANNELS 3 Xrotation Yrotation Zrotation
			JOINT LeftFoot
			{
				OFFSET 0.00001 0.00000 -16.85992
				CHANNELS 3 Xrotation Yrotation Zrotation
				JOINT LeftToeBase
				{
					OFFSET 0.00000 -5.42953 -1.97619
					CHANNELS 3 Xrotation Yrotation Zrotation
					End Site
					{
						OFFSET 0.00000 -2.85300 -0.00000
					}
				}
			}
		}
	}
}
MOTION
Frames: 17
Frame Time: 0.008342
 0.5758 -98.9402 37.4633 2.5635 2.4247 -174.8137 2.3468 -0.3717 -0.6822 1.1197 0.2258 -0.0876 -1.1241 0.1196 -0.4288 -0.8082 0.5244 -0.3328 2.1915 0.1177 -0.8491 -1.2728 0.6975 -1.7133 2.9684 7.0524 -1.6711 -4.6021 0.6464 -6.0917 0.0000 0.0000 15.6599 -9.0965 16.7122 -0.6398 -0.0000 0.0000 -0.0000 0.0000 -0.0000 0.0000 -1.8130 -4.6038 -0.8699 4.5205 5.1627 4.2447 -0.0000 -0.0000 -20.4694 -6.6999 -17.3536 -3.7880 0.0000 -0.0000 0.0000 -0.0000 -0.0000 0.0000 -1.5101 5.6070 -34.0338 18.5823 0.0000 0.0000 -15.3323 -2.5383 -4.1357 -0.4112 0.0000 -0.0000 -1.3929 -1.7581 6.9138 13.9097 0.0000 0.0000 -10.1950 2.0364 3.8571 -3.9586 0.0000 -0.0000
 0.5733 -98.9271 37.4715 2.5440 2.3357 -174.7373 2.2984 -0.4506 -0.6782 1.1129 0.2168 -0.0897 -1.1454 0.1317 -0.4401 -0.8150 0.5348 -0.3448 2.2081 0.1346 -0.8570 -1.3060 0.6866 -1.7464 2.9034 7.1718 -1.6501 -4.5465 0.6461 -6.1282 0.0000 0.0000 15.4798 -9.1315 16.6065 -0.6523 -0.0000 0.0000 -0.0000 -0.0000 -0.0000 -0.0000 -1.8763 -4.6556 -0.8552 4.7130 5.1417 4.2502 -0.0000 -0.0000 -20.2882 -6.7819 -17.4428 -3.8301 -0.0000 -0.0000 -0.0000 0.0000 0.0000 0.0000 -1.3600 5.4776 -34.3343 18.2894 0.0000 0.0000 -15.1822 -2.6422 -3.9052 -0.4331 0.0000 -0.0000 -1.3905 -1.8438 6.9188 13.8769 0.0000 0.0000 -10.1930 2.0291 3.8213 -4.1967 0.0000 -0.0000
 0.5696 -98.9090 37.4819 2.5363 2.2283 -174.6454 2.2535 -0.5451 -0.6745 1.1064 0.2076 -0.0920 -1.1770 0.1429 -0.4524 -0.8243 0.5459 -0.3582 2.2312 0.1571 -0.8656 -1.3430 0.6734 -1.7883 2.8198 7.3350 -1.6168 -4.4855 0.6349 -6.1797 0.0000 0.0000 15.2445 -9.1804 16.4826 -0.6673 -0.0000 0.0000 -0.0000 -0.0000 -0.0000 -0.0000 -1.9522 -4.7262 -0.8346 4.9717 5.1245 4.2568 -0.0000 -0.0000 -20.0475 -6.8736 -17.5531 -3.8760 0.0000 0.0000 -0.0000 -0.0000 -0.0000 0.0000 -1.1476 5.3176 -34.7348 17.9139 0.0000 0.0000 -14.9914 -2.7735 -3.5919 -0.4553 0.0000 -0.0000 -1.3621 -1.9479 6.9242 13.8229 0.0000 0.0000 -10.1817 2.0238 3.7754 -4.4569 0.0000 -0.0000
 0.5645 -98.8867 37.4939 2.5261 2.1065 -174.5437 2.2008 -0.6475 -0.6696 1.0966 0.1944 -0.0947 -1.2153 0.1542 -0.4619 -0.8364 0.5566 -0.3717 2.2600 0.1854 -0.8758 -1.3849 0.6577 -1.8380 2.7166 7.5397 -1.5710 -4.4203 0.6133 -6.2471 0.0000 0.0000 14.9569 -9.2308 16.3422 -0.6891 0.0000 -0.0000 -0.0000 -0.0000 -0.0000 -0.0000 -2.0404 -4.8135 -0.8107 5.2986 5.1134 4.2639 -0.0000 -0.0000 -19.7457 -6.9690 -17.6789 -3.9216 0.0000 -0.0000 0.0000 -0.0000 0.0000 -0.0000 -0.8977 5.1338 -35.2214 17.4709 0.0000 0.0000 -14.7656 -2.9268 -3.2032 -0.4769 0.0000 -0.0000 -1.3257 -2.0649 6.9299 13.7524 0.0000 0.0000 -10.1600 2.0213 3.7238 -4.7135 0.0000 -0.0000
 0.5580 -98.8606 37.5071 2.5161 1.9779 -174.4378 2.1441 -0.7503 -0.6641 1.0852 0.1774 -0.0979 -1.2610 0.1653 -0.4665 -0.8514 0.5663 -0.3845 2.2928 0.2174 -0.8864 -1.4280 0.6403 -1.8944 2.5961 7.7826 -1.5113 -4.3525 0.5793 -6.3285 0.0000 0.0000 14.6204 -9.2697 16.1899 -0.7196 0.0000 0.0000 0.0000 0.0000 -0.0000 -0.0000 -2.1382 -4.9174 -0.7838 5.6900 5.1113 4.2719 -0.0000 -0.0000 -19.3862 -7.0608 -17.8092 -3.9599 -0.0000 -0.0000 0.0000 -0.0000 0.0000 0.0000 -0.6163 4.9353 -35.7819 16.9757 0.0000 0.0000 -14.5119 -3.0971 -2.7459 -0.4966 0.0000 -0.0000 -1.2778 -2.1866 6.9347 13.6649 0.0000 0.0000 -10.1254 2.0224 3.6707 -4.9374 0.0000 -0.0000
 0.5503 -98.8314 37.5209 2.5061 1.8445 -174.3330 2.0837 -0.8527 -0.6585 1.0769 0.1606 -0.0999 -1.3162 0.1736 -0.4670 -0.8684 0.5731 -0.3939 2.3275 0.2523 -0.8981 -1.4702 0.6214 -1.9557 2.4625 8.0571 -1.4394 -4.2840 0.5335 -6.4216 0.0000 0.0000 14.2430 -9.2813 16.0275 -0.7647 0.0000 0.0000 0.0000 0.0000 -0.0000 0.0000 -2.2426 -5.0356 -0.7561 6.1375 5.1210 4.2805 -0.0000 -0.0000 -18.9750 -7.1346 -17.9327 -3.9813 0.0000 -0.0000 -0.0000 0.0000 0.0000 0.0000 -0.3140 4.7244 -36.3958 16.4440 0.0000 0.0000 -14.2368 -3.2778 -2.2355 -0.5145 0.0000 -0.0000 -1.2221 -2.3121 6.9401 13.5665 0.0000 0.0000 -10.0798 2.0282 3.6178 -5.0992 0.0000 -0.0000
 0.5411 -98.8004 37.5345 2.4907 1.7188 -174.2372 2.0192 -0.9425 -0.6516 1.0663 0.1438 -0.1023 -1.3744 0.1790 -0.4575 -0.8878 0.5778 -0.4024 2.3610 0.2867 -0.9089 -1.5102 0.6024 -2.0194 2.3195 8.3552 -1.3561 -4.2153 0.4749 -6.5215 0.0000 0.0000 13.8328 -9.2491 15.8618 -0.8267 0.0000 -0.0000 -0.0000 0.0000 -0.0000 -0.0000 -2.3516 -5.1659 -0.7272 6.6272 5.1446 4.2910 -0.0000 -0.0000 -18.5225 -7.1848 -18.0367 -3.9779 0.0000 -0.0000 -0.0000 -0.0000 0.0000 0.0000 -0.0130 4.5204 -37.0346 15.9064 0.0000 0.0000 -13.9560 -3.4606 -1.6919 -0.5298 0.0000 -0.0000 -1.1642 -2.4262 6.9426 13.4577 0.0000 0.0000 -10.0200 2.0385 3.5752 -5.1739 0.0000 -0.0000
 0.5308 -98.7679 37.5475 2.4806 1.6034 -174.1553 1.9620 -1.0173 -0.6443 1.0585 0.1269 -0.1035 -1.4382 0.1808 -0.4403 -0.9083 0.5785 -0.4056 2.3907 0.3196 -0.9200 -1.5454 0.5828 -2.0838 2.1724 8.6691 -1.2649 -4.1460 0.4041 -6.6261 0.0000 0.0000 13.4030 -9.1576 15.6959 -0.9129 0.0000 -0.0000 0.0000 -0.0000 -0.0000 0.0000 -2.4612 -5.3064 -0.6996 7.1442 5.1852 4.3022 -0.0000 -0.0000 -18.0371 -7.2032 -18.1104 -3.9423 -0.0000 -0.0000 0.0000 -0.0000 0.0000 0.0000 0.2879 4.3260 -37.6723 15.3790 0.0000 0.0000 -13.6780 -3.6387 -1.1372 -0.5434 0.0000 -0.0000 -1.0952 -2.5285 6.9452 13.3433 0.0000 0.0000 -9.9487 2.0542 3.5427 -5.1408 0.0000 -0.0000
 0.5196 -98.7350 37.5594 2.4738 1.5020 -174.0921 1.9119 -1.0745 -0.6364 1.0531 0.1114 -0.1034 -1.5037 0.1785 -0.4149 -0.9295 0.5751 -0.4033 2.4129 0.3490 -0.9309 -1.5751 0.5630 -2.1466 2.0254 8.9887 -1.1685 -4.0748 0.3227 -6.7318 0.0000 0.0000 12.9659 -8.9970 15.5362 -1.0277 0.0000 -0.0000 -0.0000 -0.0000 0.0000 -0.0000 -2.5697 -5.4537 -0.6742 7.6690 5.2432 4.3160 -0.0000 -0.0000 -17.5316 -7.1868 -18.1448 -3.8675 -0.0000 -0.0000 0.0000 0.0000 0.0000 0.0000 0.5740 4.1489 -38.2786 14.8837 0.0000 0.0000 -13.4146 -3.8044 -0.5971 -0.5559 0.0000 -0.0000 -1.0198 -2.6149 6.9482 13.2285 0.0000 0.0000 -9.8682 2.0751 3.5245 -4.9898 0.0000 -0.0000
 0.5075 -98.7024 37.5697 2.4727 1.4214 -174.0507 1.8740 -1.1091 -0.6283 1.0497 0.0971 -0.1026 -1.5691 0.1730 -0.3790 -0.9506 0.5688 -0.3967 2.4254 0.3714 -0.9419 -1.5992 0.5443 -2.2056 1.8829 9.3056 -1.0702 -4.0003 0.2304 -6.8365 0.0000 0.0000 12.5347 -8.7609 15.3890 -1.1767 0.0000 0.0000 0.0000 0.0000 -0.0000 0.0000 -2.6751 -5.6068 -0.6528 8.1801 5.3200 4.3353 -0.0000 -0.0000 -17.0184 -7.1302 -18.1342 -3.7484 -0.0000 0.0000 0.0000 0.0000 0.0000 0.0000 0.8370 4.0010 -38.8260 14.4421 0.0000 0.0000 -13.1788 -3.9519 -0.0958 -0.5683 0.0000 -0.0000 -0.9363 -2.6780 6.9499 13.1152 0.0000 0.0000 -9.7791 2.1007 3.5259 -4.7206 0.0000 -0.0000
 0.4946 -98.6708 37.5783 2.4788 1.3609 -174.0317 1.8492 -1.1227 -0.6205 1.0497 0.0848 -0.1010 -1.6319 0.1644 -0.3341 -0.9711 0.5588 -0.3859 2.4261 0.3861 -0.9523 -1.6184 0.5266 -2.2599 1.7481 9.6104 -0.9732 -3.9187 0.1315 -6.9371 0.0000 0.0000 12.1205 -8.4511 15.2581 -1.3638 0.0000 0.0000 -0.0000 -0.0000 -0.0000 -0.0000 -2.7765 -5.7615 -0.6351 8.6588 5.4126 4.3617 -0.0000 -0.0000 -16.5086 -7.0378 -18.0751 -3.5818 -0.0000 -0.0000 -0.0000 -0.0000 -0.0000 -0.0000 1.0721 3.8836 -39.2945 14.0652 0.0000 0.0000 -12.9772 -4.0772 0.3470 -0.5814 0.0000 -0.0000 -0.8458 -2.7193 6.9526 13.0080 0.0000 0.0000 -9.6856 2.1308 3.5459 -4.3433 0.0000 -0.0000
 0.4812 -98.6406 37.5851 2.4935 1.3202 -174.0340 1.8389 -1.1168 -0.6134 1.0530 0.0750 -0.0987 -1.6899 0.1535 -0.2821 -0.9903 0.5462 -0.3713 2.4135 0.3916 -0.9629 -1.6345 0.5099 -2.3081 1.6230 9.8981 -0.8805 -3.8283 0.0257 -7.0331 0.0000 0.0000 11.7341 -8.0725 15.1507 -1.5929 0.0000 0.0000 0.0000 0.0000 -0.0000 0.0000 -2.8737 -5.9176 -0.6212 9.0865 5.5204 4.3967 -0.0000 -0.0000 -16.0109 -6.9136 -17.9688 -3.3678 0.0000 -0.0000 -0.0000 -0.0000 -0.0000 0.0000 1.2778 3.7982 -39.6700 13.7596 0.0000 0.0000 -12.8146 -4.1785 0.7161 -0.5964 0.0000 -0.0000 -0.7480 -2.7395 6.9575 12.9093 0.0000 0.0000 -9.5912 2.1651 3.5834 -3.8785 0.0000 -0.0000
 0.4674 -98.6118 37.5902 2.5165 1.2975 -174.0548 1.8419 -1.0943 -0.6075 1.0595 0.0680 -0.0955 -1.7416 0.1414 -0.2252 -1.0077 0.5316 -0.3536 2.3878 0.3872 -0.9739 -1.6489 0.4942 -2.3500 1.5089 10.1642 -0.7948 -3.7287 -0.0854 -7.1236 0.0000 0.0000 11.3829 -7.6362 15.0709 -1.8658 0.0000 -0.0000 -0.0000 -0.0000 -0.0000 0.0000 -2.9662 -6.0742 -0.6110 9.4481 5.6405 4.4425 -0.0000 -0.0000 -15.5320 -6.7673 -17.8186 -3.1094 0.0000 -0.0000 -0.0000 -0.0000 -0.0000 -0.0000 1.4531 3.7440 -39.9472 13.5263 0.0000 0.0000 -12.6922 -4.2561 1.0039 -0.6137 0.0000 -0.0000 -0.6449 -2.7408 6.9670 12.8212 0.0000 0.0000 -9.4995 2.2033 3.6352 -3.3542 0.0000 -0.0000
 0.4533 -98.5846 37.5938 2.5465 1.2895 -174.0898 1.8557 -1.0583 -0.6029 1.0687 0.0620 -0.0935 -1.7859 0.1301 -0.1626 -1.0229 0.5168 -0.3357 2.3494 0.3723 -0.9863 -1.6632 0.4789 -2.3857 1.4060 10.4075 -0.7179 -3.6213 -0.2023 -7.2103 0.0000 0.0000 11.0739 -7.1566 15.0237 -2.1861 0.0000 0.0000 0.0000 -0.0000 -0.0000 0.0000 -3.0544 -6.2325 -0.6035 9.7323 5.7707 4.4992 -0.0000 -0.0000 -15.0764 -6.6089 -17.6320 -2.8091 -0.0000 0.0000 0.0000 0.0000 0.0000 0.0000 1.5999 3.7169 -40.1297 13.3600 0.0000 0.0000 -12.6073 -4.3122 1.2102 -0.6340 0.0000 -0.0000 -0.5385 -2.7271 6.9835 12.7448 0.0000 0.0000 -9.4141 2.2454 3.6963 -2.8050 0.0000 -0.0000
 0.4387 -98.5586 37.5960 2.5851 1.2976 -174.1350 1.8822 -1.0107 -0.5998 1.0795 0.0634 -0.0876 -1.8234 0.1170 -0.1056 -1.0360 0.5018 -0.3145 2.3013 0.3486 -1.0008 -1.6798 0.4637 -2.4158 1.3136 10.6262 -0.6506 -3.5067 -0.3199 -7.2932 0.0000 0.0000 10.8083 -6.6519 15.0082 -2.5506 0.0000 -0.0000 0.0000 -0.0000 -0.0000 -0.0000 -3.1393 -6.3923 -0.6001 9.9328 5.9081 4.5711 -0.0000 -0.0000 -14.6478 -6.4483 -17.4154 -2.4726 0.0000 -0.0000 -0.0000 -0.0000 0.0000 0.0000 1.7242 3.7189 -40.2303 13.2559 0.0000 0.0000 -12.5575 -4.3511 1.3442 -0.6562 0.0000 -0.0000 -0.4247 -2.6969 7.0088 12.6754 0.0000 0.0000 -9.3349 2.2912 3.7627 -2.2655 0.0000 -0.0000
 0.4239 -98.5332 37.5974 2.6353 1.3146 -174.1844 1.9214 -0.9556 -0.5970 1.0921 0.0624 -0.0851 -1.8538 0.1096 -0.0476 -1.0473 0.4882 -0.2952 2.2459 0.3154 -1.0179 -1.6984 0.4471 -2.4413 1.2305 10.8236 -0.5943 -3.3898 -0.4425 -7.3725 0.0000 0.0000 10.5858 -6.1416 15.0307 -2.9553 0.0000 0.0000 0.0000 0.0000 -0.0000 0.0000 -3.2201 -6.5558 -0.5969 10.0486 6.0479 4.6537 -0.0000 -0.0000 -14.2442 -6.2991 -17.1766 -2.1094 0.0000 -0.0000 -0.0000 -0.0000 -0.0000 -0.0000 1.8384 3.7374 -40.2671 13.1956 0.0000 0.0000 -12.5321 -4.3783 1.4182 -0.6811 0.0000 -0.0000 -0.3001 -2.6594 7.0486 12.6124 0.0000 0.0000 -9.2657 2.3416 3.8236 -1.7679 0.0000 -0.0000
 0.4088 -98.5087 37.5981 2.6850 1.3372 -174.2330 1.9601 -0.8970 -0.5957 1.1049 0.0651 -0.0812 -1.8773 0.1043 0.0034 -1.0567 0.4762 -0.2769 2.1869 0.2756 -1.0380 -1.7218 0.4294 -2.4631 1.1540 10.9999 -0.5479 -3.2760 -0.5653 -7.4498 0.0000 0.0000 10.4049 -5.6456 15.0917 -3.3946 0.0000 -0.0000 -0.0000 -0.0000 -0.0000 0.0000 -3.2983 -6.7229 -0.5945 10.0826 6.1884 4.7490 -0.0000 -0.0000 -13.8669 -6.1675 -16.9267 -1.7275 0.0000 0.0000 -0.0000 -0.0000 -0.0000 0.0000 1.9346 3.7695 -40.2585 13.1704 0.0000 0.0000 -12.5255 -4.3980 1.4465 -0.7043 0.0000 -0.0000 -0.1786 -2.6168 7.1019 12.5560 0.0000 0.0000 -9.2075 2.3964 3.8752 -1.3409 0.0000 -0.0000
